<svg viewBox="0 0 561 165" xmlns="http://www.w3.org/2000/svg">
	<g fill="none">
		<path fill="#FFF"
			  d="M180.552 83.146c0-23.691 18.171-39.677 42.207-39.677 20.126 0 30.246 11.73 34.846 22.311l-20.011 9.315c-1.955-5.98-7.935-11.155-14.835-11.155-11.156 0-18.632 8.51-18.632 19.206 0 10.695 7.476 19.206 18.632 19.206 6.9 0 12.88-5.176 14.835-11.156l20.011 9.201c-4.485 10.235-14.72 22.425-34.846 22.425-24.036 0-42.207-16.1-42.207-39.676zm137.081-.115c0-10.351-5.98-18.056-18.401-18.056h-11.155v36.226h11.04c11.616 0 18.516-8.51 18.516-18.17zm-52.787 38.412V44.734h34.271c24.152 0 42.092 13.8 42.092 38.297 0 24.495-17.94 38.412-41.977 38.412h-34.386zm136.161 0L372.716 82.57v38.873h-23.231V44.734h23.921l26.681 36.342V44.734h23.231v76.709h-22.311zm42.318 0l24.267-56.468h-35.997V44.734h62.677v16.101l-25.531 60.608h-25.416zm66.405 0l24.266-56.468H498V44.734h62.677v16.101l-25.531 60.608H509.73z"/>
		<g fill="#FFE115">
			<path
				d="M69.911 0c38.611 0 69.913 31.525 69.913 70.41 0 38.888-69.913 93.882-69.913 93.882S0 109.298 0 70.41C0 31.525 31.3 0 69.911 0zm0 25.144c-23.538 0-42.616 19.215-42.616 42.922 0 23.704 19.078 42.922 42.616 42.922s42.618-19.218 42.618-42.922c0-23.707-19.08-42.922-42.618-42.922z"/>
			<path
				d="M69.909 48.702c-10.616 0-19.223 8.67-19.223 19.363s8.607 19.363 19.223 19.363c10.618 0 19.228-8.67 19.228-19.363 0-10.692-8.61-19.363-19.228-19.363"/>
		</g>
	</g>
</svg>
